#!OML:ASF F:\VICON\USERDATA\INSTALL\rory3\rory3.ASF
:FULLY-SPECIFIED
:DEGREES
1848
root 0.78557 15.66 -6.76902 -20.9955 4.87067 0.463107
lowerback 25.592 -0.11292 -4.47504
upperback 14.4806 -1.06876 -2.49318
thorax 1.942 -0.691527 0.080457
lowerneck -2.93301 -10.4887 -15.9968
upperneck -3.60417 -13.6019 17.614
head 1.8079 -6.69473 7.36329
rclavicle 1.15295e-014 -1.59028e-015
rhumerus -38.8199 46.0031 -91.5719
rradius 94.6591
rwrist 12.2819
rhand -63.0443 37.9996
rfingers 7.12502
rthumb -35.045 11.4541
lclavicle 1.15295e-014 -1.59028e-015
lhumerus -45.1737 -55.8342 90.3748
lradius 77.9513
lwrist 6.12795
lhand -54.6041 29.1757
lfingers 7.12502
lthumb -27.0015 57.2659
rfemur -78.4843 -41.6786 25.0092
rtibia 145.461
rfoot -9.85151 -9.31944
rtoes 20.0193
lfemur -28.542 12.0603 -9.4562
ltibia 65.5371
lfoot -10.2496 -4.02903
ltoes -0.37301
1849
root 0.786358 15.6602 -6.76781 -20.9899 4.92078 0.557248
lowerback 25.5569 -0.103253 -4.56018
upperback 14.4951 -1.07114 -2.51827
thorax 1.97771 -0.697442 0.101123
lowerneck -3.0459 -10.5051 -16.0045
upperneck -3.56995 -13.6117 17.6038
head 1.83755 -6.69411 7.35321
rclavicle -2.78299e-015 -9.54166e-015
rhumerus -38.778 45.983 -91.5378
rradius 94.6594
rwrist 12.2546
rhand -62.9876 37.903
rfingers 7.12502
rthumb -34.9912 11.3449
lclavicle -2.78299e-015 -9.54166e-015
lhumerus -45.0878 -55.833 90.3061
lradius 77.9661
lwrist 6.13951
lhand -54.559 29.1327
lfingers 7.12502
lthumb -26.9583 57.2295
rfemur -78.5213 -41.7692 24.8854
rtibia 145.463
rfoot -9.77164 -9.30829
rtoes 19.8339
lfemur -28.5218 12.0333 -9.5851
ltibia 65.541
lfoot -10.2822 -4.00914
ltoes -0.385118
1850
root 0.786414 15.6592 -6.76745 -20.9905 4.91505 0.521483
lowerback 25.5302 -0.111623 -4.52402
upperback 14.4915 -1.07279 -2.5083
thorax 1.98496 -0.696607 0.0917231
lowerneck -3.0105 -10.4904 -16.0034
upperneck -3.6196 -13.5915 17.6063
head 1.8142 -6.6861 7.35909
rclavicle -2.06736e-014 -7.95139e-015
rhumerus -38.8142 45.9824 -91.5533
rradius 94.682
rwrist 12.2207
rhand -62.9482 37.724
rfingers 7.12502
rthumb -34.9538 11.1572
lclavicle -2.06736e-014 -7.95139e-015
lhumerus -45.0609 -55.8318 90.2835
lradius 77.9633
lwrist 6.14091
lhand -54.5066 29.0473
lfingers 7.12502
lthumb -26.9082 57.1519
rfemur -78.4954 -41.7512 24.9096
rtibia 145.458
rfoot -9.78064 -9.31633
rtoes 19.9105
lfemur -28.5402 12.0231 -9.54633
ltibia 65.5556
lfoot -10.2606 -4.00317
ltoes -0.130874
1851
root 0.785788 15.6574 -6.76958 -20.9835 4.87008 0.407679
lowerback 25.5281 -0.126178 -4.41532
upperback 14.4801 -1.06917 -2.47773
thorax 1.96932 -0.689176 0.0629994
lowerneck -2.91469 -10.4777 -16.0098
upperneck -3.71927 -13.5772 17.6107
head 1.76818 -6.68416 7.37081
rclavicle 3.97569e-016 -2.06736e-014
rhumerus -38.8061 45.9979 -91.5679
rradius 94.6479
rwrist 12.2532
rhand -62.9754 37.5213
rfingers 7.12502
rthumb -34.9796 10.9605
lclavicle 3.97569e-016 -2.06736e-014
lhumerus -45.0667 -55.8336 90.295
lradius 77.9481
lwrist 6.14308
lhand -54.4648 29.1243
lfingers 7.12502
lthumb -26.8682 57.235
rfemur -78.5484 -41.5563 25.1337
rtibia 145.435
rfoot -9.73505 -9.44235
rtoes 19.9722
lfemur -28.5977 12.0311 -9.40654
ltibia 65.578
lfoot -10.2153 -3.98618
ltoes -0.27509
1852
root 0.785333 15.6567 -6.77148 -21.0037 4.85802 0.376002
lowerback 25.5703 -0.12615 -4.38666
upperback 14.4769 -1.06578 -2.4711
thorax 1.94498 -0.685528 0.0537617
lowerneck -2.88147 -10.4743 -16.038
upperneck -3.74874 -13.5745 17.6585
head 1.75989 -6.68443 7.39285
rclavicle -2.18663e-014 -8.74653e-015
rhumerus -38.7788 46.0164 -91.5725
rradius 94.5992
rwrist 12.303
rhand -63.03 37.3999
rfingers 7.12502
rthumb -35.0314 10.8512
lclavicle -2.18663e-014 -8.74653e-015
lhumerus -45.0144 -55.8792 90.2537
lradius 77.9271
lwrist 6.20052
lhand -54.4838 29.2589
lfingers 7.12502
lthumb -26.8864 57.3668
rfemur -78.5483 -41.5122 25.1981
rtibia 145.435
rfoot -9.71668 -9.49527
rtoes 19.9979
lfemur -28.5934 12.0114 -9.36234
ltibia 65.589
lfoot -10.2077 -3.97503
ltoes -0.424137
1853
root 0.784926 15.6562 -6.77339 -21.0085 4.82143 0.302331
lowerback 25.6174 -0.130046 -4.30712
upperback 14.4525 -1.05808 -2.45245
thorax 1.89228 -0.67651 0.0283515
lowerneck -2.9053 -10.4669 -16.099
upperneck -3.6852 -13.5682 17.7564
head 1.79386 -6.67921 7.43036
rclavicle 2.54444e-014 1.27222e-014
rhumerus -38.8277 45.9923 -91.5939
rradius 94.6083
rwrist 12.3112
rhand -63.0478 37.1627
rfingers 7.12502
rthumb -35.0482 10.6179
lclavicle 2.54444e-014 1.27222e-014
lhumerus -45.0053 -55.9134 90.2434
lradius 77.9215
lwrist 6.24106
lhand -54.4952 29.2263
lfingers 7.12502
lthumb -26.8972 57.3325
rfemur -78.5818 -41.4173 25.3605
rtibia 145.433
rfoot -9.69842 -9.58985
rtoes 20.0451
lfemur -28.6075 11.983 -9.26571
ltibia 65.5973
lfoot -10.1905 -4.00853
ltoes -0.000789497
1854
root 0.784843 15.6561 -6.77403 -20.9869 4.83221 0.329
lowerback 25.6034 -0.123724 -4.33254
upperback 14.4377 -1.05514 -2.45706
thorax 1.88262 -0.676079 0.0371659
lowerneck -2.94375 -10.462 -16.1757
upperneck -3.62718 -13.5624 17.8594
head 1.83024 -6.67345 7.47125
rclavicle 1.78906e-014 -1.59028e-015
rhumerus -38.8653 45.9524 -91.6065
rradius 94.6237
rwrist 12.3055
rhand -63.0336 36.8608
rfingers 7.12502
rthumb -35.0348 10.3129
lclavicle 1.78906e-014 -1.59028e-015
lhumerus -45.0326 -55.8997 90.2633
lradius 77.9272
lwrist 6.18467
lhand -54.4188 29.2367
lfingers 7.12502
lthumb -26.8241 57.3543
rfemur -78.6042 -41.5057 25.3199
rtibia 145.476
rfoot -9.75053 -9.53202
rtoes 20.1716
lfemur -28.63 11.9473 -9.30814
ltibia 65.5942
lfoot -10.2095 -4.00779
ltoes 0.220787
1855
root 0.785491 15.6553 -6.77383 -21.0095 4.89842 0.46941
lowerback 25.5796 -0.110903 -4.47379
upperback 14.4737 -1.06521 -2.50129
thorax 1.9396 -0.688978 0.070176
lowerneck -3.02471 -10.4773 -16.1599
upperneck -3.60138 -13.5752 17.8535
head 1.85153 -6.67608 7.46056
rclavicle 4.53229e-014 1.98785e-014
rhumerus -38.7775 45.9265 -91.5741
rradius 94.6041
rwrist 12.2947
rhand -63.0147 37.0684
rfingers 7.12502
rthumb -35.0169 10.5163
lclavicle 4.53229e-014 1.98785e-014
lhumerus -44.9589 -55.8708 90.1846
lradius 77.9409
lwrist 6.15949
lhand -54.31 29.2163
lfingers 7.12502
lthumb -26.72 57.3498
rfemur -78.5286 -41.7478 24.9897
rtibia 145.528
rfoot -9.80859 -9.32006
rtoes 20.3316
lfemur -28.5854 11.8901 -9.49236
ltibia 65.5888
lfoot -10.2752 -3.95652
ltoes -0.262662
1856
root 0.78597 15.6544 -6.77459 -21.0699 4.92572 0.517865
lowerback 25.6195 -0.117944 -4.52635
upperback 14.5075 -1.08642 -2.5353
thorax 1.9617 -0.702011 0.0674859
lowerneck -3.10574 -10.4945 -16.1122
upperneck -3.58396 -13.5902 17.8271
head 1.8668 -6.68025 7.4385
rclavicle 1.35174e-014 3.18055e-014
rhumerus -38.6937 45.9246 -91.5723
rradius 94.582
rwrist 12.3248
rhand -63.0265 37.3854
rfingers 7.12502
rthumb -35.0281 10.8359
lclavicle 1.35174e-014 3.18055e-014
lhumerus -44.8272 -55.8196 90.0528
lradius 77.9268
lwrist 6.2251
lhand -54.2319 29.0766
lfingers 7.12502
lthumb -26.6452 57.2214
rfemur -78.4587 -41.7607 24.8476
rtibia 145.505
rfoot -9.72548 -9.29744
rtoes 20.2849
lfemur -28.5096 11.8507 -9.54983
ltibia 65.592
lfoot -10.305 -3.93384
ltoes -0.637113
1857
root 0.785689 15.6542 -6.77515 -21.0785 4.91806 0.46932
lowerback 25.6332 -0.1358 -4.50881
upperback 14.499 -1.10719 -2.532
thorax 1.94552 -0.711396 0.0662245
lowerneck -3.19198 -10.4794 -16.1424
upperneck -3.49387 -13.5675 17.8826
head 1.91014 -6.66389 7.45579
rclavicle 2.26615e-014 2.14687e-014
rhumerus -38.705 45.9522 -91.6098
rradius 94.5847
rwrist 12.3841
rhand -63.0518 37.1883
rfingers 7.12502
rthumb -35.0521 10.6444
lclavicle 2.26615e-014 2.14687e-014
lhumerus -44.8015 -55.7736 90.0228
lradius 77.8875
lwrist 6.27061
lhand -54.3009 28.949
lfingers 7.12502
lthumb -26.7113 57.0838
rfemur -78.4691 -41.6775 24.9578
rtibia 145.474
rfoot -9.6695 -9.40141
rtoes 20.2046
lfemur -28.5092 11.8519 -9.49127
ltibia 65.601
lfoot -10.2859 -3.94497
ltoes -0.46388
1858
root 0.785476 15.6535 -6.77409 -21.052 4.90029 0.410446
lowerback 25.5864 -0.147904 -4.4822
upperback 14.4778 -1.1154 -2.51233
thorax 1.94271 -0.714846 0.0743494
lowerneck -3.21808 -10.4435 -16.1698
upperneck -3.43924 -13.5202 17.9092
head 1.92649 -6.63831 7.4704
rclavicle -2.78299e-015 -1.66979e-014
rhumerus -38.7452 45.9835 -91.6501
rradius 94.5736
rwrist 12.4473
rhand -63.0876 36.4929
rfingers 7.12502
rthumb -35.086 9.957
lclavicle -2.78299e-015 -1.66979e-014
lhumerus -44.8651 -55.7668 90.0819
lradius 77.8637
lwrist 6.29771
lhand -54.3961 28.7585
lfingers 7.12502
lthumb -26.8024 56.8794
rfemur -78.4962 -41.631 25.0824
rtibia 145.475
rfoot -9.69205 -9.45547
rtoes 20.3651
lfemur -28.5561 11.8537 -9.42288
ltibia 65.6127
lfoot -10.2561 -3.92865
ltoes -0.154177
1859
root 0.785349 15.6541 -6.77404 -21.0645 4.90325 0.397143
lowerback 25.5858 -0.154263 -4.47254
upperback 14.4568 -1.12258 -2.5103
thorax 1.91887 -0.717427 0.0731626
lowerneck -3.13457 -10.4212 -16.1902
upperneck -3.46915 -13.4974 17.9036
head 1.90118 -6.63076 7.47945
rclavicle -2.26615e-014 -3.65764e-014
rhumerus -38.8128 45.9804 -91.7127
rradius 94.5739
rwrist 12.4017
rhand -63.0504 36.3549
rfingers 7.12502
rthumb -35.0508 9.81072
lclavicle -2.26615e-014 -3.65764e-014
lhumerus -44.9605 -55.7584 90.1538
lradius 77.8747
lwrist 6.31155
lhand -54.4857 28.6105
lfingers 7.12502
lthumb -26.8882 56.7182
rfemur -78.4601 -41.6371 25.0645
rtibia 145.467
rfoot -9.70454 -9.43232
rtoes 20.4054
lfemur -28.5418 11.8221 -9.40978
ltibia 65.6059
lfoot -10.2812 -3.89433
ltoes -0.0430612
1860
root 0.785225 15.6544 -6.7748 -21.0641 4.92858 0.417284
lowerback 25.5746 -0.16541 -4.48042
upperback 14.4458 -1.13859 -2.53152
thorax 1.9118 -0.724706 0.0583529
lowerneck -3.07314 -10.4104 -16.2187
upperneck -3.50519 -13.4874 17.9334
head 1.88355 -6.62872 7.49845
rclavicle -7.95139e-015 4.77083e-015
rhumerus -38.8311 45.9457 -91.7464
rradius 94.6048
rwrist 12.3103
rhand -62.9704 36.8701
rfingers 7.12502
rthumb -34.9749 10.3081
lclavicle -7.95139e-015 4.77083e-015
lhumerus -45.0226 -55.7095 90.1694
lradius 77.9069
lwrist 6.24953
lhand -54.5769 28.7407
lfingers 7.12502
lthumb -26.9754 56.8349
rfemur -78.45 -41.7037 24.9939
rtibia 145.473
rfoot -9.69953 -9.37578
rtoes 20.4929
lfemur -28.5387 11.7874 -9.44948
ltibia 65.592
lfoot -10.3201 -3.85861
ltoes -0.338062
1861
root 0.785173 15.6545 -6.77402 -21.0628 4.96965 0.514838
lowerback 25.5518 -0.15464 -4.58358
upperback 14.4437 -1.14536 -2.56911
thorax 1.92338 -0.732917 0.077066
lowerneck -3.01104 -10.3984 -16.2149
upperneck -3.57652 -13.4733 17.9674
head 1.85314 -6.62538 7.51511
rclavicle 1.35174e-014 1.27222e-014
rhumerus -38.8121 45.9406 -91.7549
rradius 94.6053
rwrist 12.3238
rhand -62.9789 37.0724
rfingers 7.12502
rthumb -34.9829 10.5124
lclavicle 1.35174e-014 1.27222e-014
lhumerus -45.0452 -55.6869 90.1775
lradius 77.9149
lwrist 6.23679
lhand -54.467 29.0179
lfingers 7.12502
lthumb -26.8703 57.1283
rfemur -78.3949 -41.8869 24.7944
rtibia 145.51
rfoot -9.74639 -9.25352
rtoes 20.6398
lfemur -28.5141 11.7623 -9.57449
ltibia 65.5705
lfoot -10.3097 -3.83098
ltoes -0.383082
1862
root 0.784828 15.6556 -6.7733 -21.1005 4.96494 0.54259
lowerback 25.5396 -0.14065 -4.62028
upperback 14.4552 -1.13409 -2.58682
thorax 1.94301 -0.729186 0.0755877
lowerneck -2.94398 -10.3865 -16.171
upperneck -3.6499 -13.4607 17.9874
head 1.81765 -6.62348 7.52134
rclavicle -2.22639e-014 -1.27222e-014
rhumerus -38.7954 45.9298 -91.7673
rradius 94.5997
rwrist 12.3224
rhand -63.0053 36.8841
rfingers 7.12502
rthumb -35.0079 10.3299
lclavicle -2.22639e-014 -1.27222e-014
lhumerus -45.0332 -55.7069 90.1622
lradius 77.9013
lwrist 6.28879
lhand -54.2327 29.1368
lfingers 7.12502
lthumb -26.646 57.2815
rfemur -78.291 -41.9515 24.7126
rtibia 145.512
rfoot -9.78711 -9.21484
rtoes 20.5034
lfemur -28.4496 11.7628 -9.58881
ltibia 65.5545
lfoot -10.3017 -3.86845
ltoes -0.00694084
